<svg width="320" height="240" viewBox="0 0 320 240" fill="none" xmlns="http://www.w3.org/2000/svg">
  <rect x="16" y="24" width="288" height="192" rx="32" fill="url(#paint0_radial_1_1)"/>
  <g filter="url(#filter0_d_1_1)">
    <ellipse cx="160" cy="168" rx="88" ry="22" fill="#E0E7FF"/>
  </g>
  <g filter="url(#filter1_d_1_1)">
    <rect x="120" y="72" width="80" height="88" rx="28" fill="#7CB342"/>
    <path d="M160 60C176 60 188 68 188 84C188 100 176 108 160 108C144 108 132 100 132 84C132 68 144 60 160 60Z" fill="#8BC34A"/>
    <circle cx="144" cy="88" r="8" fill="white"/>
    <circle cx="176" cy="88" r="8" fill="white"/>
    <circle cx="145" cy="89" r="4" fill="#3A3A5A"/>
    <circle cx="175" cy="89" r="4" fill="#3A3A5A"/>
    <path d="M148 116C152 124 168 124 172 116" stroke="#3A3A5A" stroke-width="6" stroke-linecap="round"/>
  </g>
  <path d="M112 150C120 140 128 136 136 138" stroke="white" stroke-width="8" stroke-linecap="round"/>
  <path d="M208 150C200 140 192 136 184 138" stroke="white" stroke-width="8" stroke-linecap="round"/>
  <g filter="url(#filter2_d_1_1)">
    <path d="M92 122C72 126 56 122 52 110C48 98 60 86 80 82C88 80 98 80 102 72" stroke="#FF8A80" stroke-width="18" stroke-linecap="round"/>
  </g>
  <g filter="url(#filter3_d_1_1)">
    <path d="M228 122C248 126 264 122 268 110C272 98 260 86 240 82C232 80 222 80 218 72" stroke="#FF8A80" stroke-width="18" stroke-linecap="round"/>
  </g>
  <g filter="url(#filter4_d_1_1)">
    <rect x="104" y="150" width="112" height="28" rx="14" fill="#FFCA28"/>
    <path d="M120 164H200" stroke="#F57C00" stroke-width="6" stroke-linecap="round" stroke-dasharray="16 12"/>
  </g>
  <g filter="url(#filter5_d_1_1)">
    <circle cx="72" cy="72" r="20" fill="#FFD54F"/>
    <path d="M72 60V84" stroke="#F57C00" stroke-width="6" stroke-linecap="round"/>
    <path d="M60 72H84" stroke="#F57C00" stroke-width="6" stroke-linecap="round"/>
  </g>
  <g filter="url(#filter6_d_1_1)">
    <path d="M242 52C250 52 258 56 262 64" stroke="#FF8A80" stroke-width="10" stroke-linecap="round"/>
    <path d="M258 52C266 52 274 56 278 64" stroke="#FF4081" stroke-width="10" stroke-linecap="round"/>
  </g>
  <defs>
    <filter id="filter0_d_1_1" x="52" y="138" width="216" height="72" filterUnits="userSpaceOnUse" color-interpolation-filters="sRGB">
      <feFlood flood-opacity="0" result="BackgroundImageFix"/>
      <feGaussianBlur in="BackgroundImageFix" stdDeviation="6"/>
      <feComposite in2="SourceAlpha" operator="in" result="effect1_backgroundBlur_1_1"/>
      <feOffset dy="6"/>
      <feGaussianBlur stdDeviation="8"/>
      <feComposite in2="SourceAlpha" operator="out"/>
      <feColorMatrix type="matrix" values="0 0 0 0 0.2 0 0 0 0 0.26 0 0 0 0 0.42 0 0 0 0.3 0"/>
      <feBlend mode="normal" in2="BackgroundImageFix" result="effect1_dropShadow_1_1"/>
      <feBlend mode="normal" in="SourceGraphic" in2="effect1_dropShadow_1_1" result="shape"/>
    </filter>
    <filter id="filter1_d_1_1" x="104" y="52" width="112" height="120" filterUnits="userSpaceOnUse" color-interpolation-filters="sRGB">
      <feOffset dy="6"/>
      <feGaussianBlur stdDeviation="6"/>
      <feColorMatrix type="matrix" values="0 0 0 0 0.08 0 0 0 0 0.21 0 0 0 0 0.05 0 0 0 0.35 0"/>
      <feBlend mode="normal" in2="SourceGraphic" result="shape"/>
    </filter>
    <filter id="filter2_d_1_1" x="34" y="59" width="92" height="87" filterUnits="userSpaceOnUse" color-interpolation-filters="sRGB">
      <feOffset dy="4"/>
      <feGaussianBlur stdDeviation="4"/>
      <feColorMatrix type="matrix" values="0 0 0 0 0.6 0 0 0 0 0.05 0 0 0 0 0.3 0 0 0 0.35 0"/>
      <feBlend mode="normal" in2="SourceGraphic" result="shape"/>
    </filter>
    <filter id="filter3_d_1_1" x="208" y="59" width="92" height="87" filterUnits="userSpaceOnUse" color-interpolation-filters="sRGB">
      <feOffset dy="4"/>
      <feGaussianBlur stdDeviation="4"/>
      <feColorMatrix type="matrix" values="0 0 0 0 0.6 0 0 0 0 0.05 0 0 0 0 0.3 0 0 0 0.35 0"/>
      <feBlend mode="normal" in2="SourceGraphic" result="shape"/>
    </filter>
    <filter id="filter4_d_1_1" x="92" y="144" width="136" height="52" filterUnits="userSpaceOnUse" color-interpolation-filters="sRGB">
      <feOffset dy="4"/>
      <feGaussianBlur stdDeviation="6"/>
      <feColorMatrix type="matrix" values="0 0 0 0 0.35 0 0 0 0 0.16 0 0 0 0 0 0 0 0 0.3 0"/>
      <feBlend mode="normal" in2="SourceGraphic" result="shape"/>
    </filter>
    <filter id="filter5_d_1_1" x="46" y="50" width="52" height="52" filterUnits="userSpaceOnUse" color-interpolation-filters="sRGB">
      <feOffset dy="4"/>
      <feGaussianBlur stdDeviation="4"/>
      <feColorMatrix type="matrix" values="0 0 0 0 0.3 0 0 0 0 0.16 0 0 0 0 0 0 0 0 0.35 0"/>
      <feBlend mode="normal" in2="SourceGraphic" result="shape"/>
    </filter>
    <filter id="filter6_d_1_1" x="232" y="42" width="56" height="42" filterUnits="userSpaceOnUse" color-interpolation-filters="sRGB">
      <feOffset dy="4"/>
      <feGaussianBlur stdDeviation="4"/>
      <feColorMatrix type="matrix" values="0 0 0 0 0.42 0 0 0 0 0.08 0 0 0 0 0.24 0 0 0 0.35 0"/>
      <feBlend mode="normal" in2="SourceGraphic" result="shape"/>
    </filter>
    <radialGradient id="paint0_radial_1_1" cx="0" cy="0" r="1" gradientUnits="userSpaceOnUse" gradientTransform="translate(160 120) rotate(90) scale(120 160)">
      <stop offset="0" stop-color="#FFFDE7"/>
      <stop offset="0.45" stop-color="#F3E5F5"/>
      <stop offset="1" stop-color="#C5CAE9"/>
    </radialGradient>
  </defs>
</svg>
