<svg width="160" height="160" viewBox="0 0 160 160" fill="none" xmlns="http://www.w3.org/2000/svg">
  <defs>
    <linearGradient id="mapBody" x1="0" y1="0" x2="1" y2="1">
      <stop offset="0" stop-color="#FFF3E0"/>
      <stop offset="1" stop-color="#FFE0B2"/>
    </linearGradient>
    <linearGradient id="river" x1="20" y1="120" x2="140" y2="40">
      <stop offset="0" stop-color="#4FC3F7"/>
      <stop offset="1" stop-color="#0288D1"/>
    </linearGradient>
    <linearGradient id="compass" x1="60" y1="40" x2="100" y2="80">
      <stop offset="0" stop-color="#FFAB91"/>
      <stop offset="1" stop-color="#F06292"/>
    </linearGradient>
  </defs>
  <path d="M24 32L56 20L120 36L136 132L80 144L24 120V32Z" fill="url(#mapBody)" stroke="#FBC02D" stroke-width="6" stroke-linejoin="round"/>
  <path d="M28 80C40 70 60 66 80 74C100 82 120 78 132 64" stroke="url(#river)" stroke-width="10" stroke-linecap="round"/>
  <g transform="translate(52 52)">
    <circle cx="28" cy="28" r="28" fill="white" stroke="#F48FB1" stroke-width="6"/>
    <path d="M28 10L34 28L52 34L34 40L28 58L22 40L4 34L22 28L28 10Z" fill="url(#compass)"/>
  </g>
</svg>
