<svg width="240" height="200" viewBox="0 0 240 200" fill="none" xmlns="http://www.w3.org/2000/svg">
  <defs>
    <radialGradient id="mazeGlow" cx="120" cy="100" r="140" gradientUnits="userSpaceOnUse">
      <stop offset="0" stop-color="#ede7f6" />
      <stop offset="0.5" stop-color="#d1c4e9" />
      <stop offset="1" stop-color="#9575cd" />
    </radialGradient>
    <linearGradient id="mazePath" x1="0" y1="0" x2="200" y2="200" gradientUnits="userSpaceOnUse">
      <stop offset="0" stop-color="#7c4dff" />
      <stop offset="1" stop-color="#26c6da" />
    </linearGradient>
    <filter id="mazeBlur" x="-20" y="-20" width="280" height="240" filterUnits="userSpaceOnUse" color-interpolation-filters="sRGB">
      <feGaussianBlur stdDeviation="8" />
    </filter>
  </defs>
  <rect width="240" height="200" rx="28" fill="url(#mazeGlow)" />
  <g transform="translate(40 28)">
    <rect x="0" y="0" width="160" height="144" rx="18" fill="rgba(21,27,49,0.85)" />
    <path
      d="M16 16H144V40H80V64H128V112H48V88H96V64H16V16ZM32 128H144V96H160V144H16V96H32V128Z"
      fill="none" stroke="url(#mazePath)" stroke-width="8" stroke-linecap="round" stroke-linejoin="round" filter="url(#mazeBlur)"
    />
    <path
      d="M16 16H144V40H80V64H128V112H48V88H96V64H16V16ZM32 128H144V96H160V144H16V96H32V128Z"
      fill="none" stroke="url(#mazePath)" stroke-width="6" stroke-linecap="round" stroke-linejoin="round"
    />
    <circle cx="40" cy="40" r="12" fill="#ffecb3" stroke="#ffb300" stroke-width="4" />
    <circle cx="128" cy="112" r="14" fill="#b2ff59" stroke="#64dd17" stroke-width="5" />
    <g transform="translate(10 90)">
      <rect width="28" height="28" rx="8" fill="rgba(255,255,255,0.7)" />
      <text x="14" y="19" text-anchor="middle" font-family="'Poppins', 'Arial', sans-serif" font-size="16" font-weight="700" fill="#4527a0">R</text>
    </g>
    <g transform="translate(114 52)">
      <rect width="28" height="28" rx="8" fill="rgba(255,255,255,0.7)" />
      <text x="14" y="19" text-anchor="middle" font-family="'Poppins', 'Arial', sans-serif" font-size="16" font-weight="700" fill="#00695c">A</text>
    </g>
  </g>
  <g transform="translate(168 22)">
    <circle cx="0" cy="0" r="18" fill="rgba(255,255,255,0.55)" />
    <path d="M-6 0L0 -8L6 0L0 8Z" fill="#7e57c2" />
  </g>
</svg>
