<svg width="320" height="240" viewBox="0 0 320 240" fill="none" xmlns="http://www.w3.org/2000/svg">
  <rect x="16" y="24" width="288" height="192" rx="36" fill="url(#paint0_radial_4_1)"/>
  <g filter="url(#filter0_d_4_1)">
    <rect x="92" y="76" width="136" height="96" rx="28" fill="#FFF3E0"/>
    <path d="M92 116H228" stroke="#FFB74D" stroke-width="8" stroke-linecap="round" stroke-dasharray="18 14"/>
    <path d="M112 176C116 188 132 198 160 198C188 198 204 188 208 176" stroke="#F57C00" stroke-width="10" stroke-linecap="round"/>
  </g>
  <g filter="url(#filter1_d_4_1)">
    <rect x="70" y="60" width="68" height="36" rx="18" fill="#AED581"/>
    <text x="104" y="84" text-anchor="middle" font-family="'Baloo 2', 'Comic Sans MS', sans-serif" font-size="20" fill="#33691E">PI</text>
  </g>
  <g filter="url(#filter2_d_4_1)">
    <rect x="128" y="46" width="76" height="36" rx="18" fill="#FFCDD2"/>
    <text x="166" y="70" text-anchor="middle" font-family="'Baloo 2', 'Comic Sans MS', sans-serif" font-size="20" fill="#C2185B">CNI</text>
  </g>
  <g filter="url(#filter3_d_4_1)">
    <rect x="208" y="60" width="70" height="36" rx="18" fill="#C5CAE9"/>
    <text x="243" y="84" text-anchor="middle" font-family="'Baloo 2', 'Comic Sans MS', sans-serif" font-size="20" fill="#283593">C</text>
  </g>
  <path d="M64 200C92 184 118 180 146 188" stroke="#81C784" stroke-width="6" stroke-linecap="round" stroke-dasharray="12 10"/>
  <path d="M196 204C220 190 242 188 264 198" stroke="#4DB6AC" stroke-width="6" stroke-linecap="round" stroke-dasharray="12 10"/>
  <defs>
    <filter id="filter0_d_4_1" x="76" y="60" width="168" height="158" filterUnits="userSpaceOnUse" color-interpolation-filters="sRGB">
      <feOffset dy="6"/>
      <feGaussianBlur stdDeviation="8"/>
      <feColorMatrix type="matrix" values="0 0 0 0 0.46 0 0 0 0 0.27 0 0 0 0 0.08 0 0 0 0.25 0"/>
      <feBlend mode="normal" in2="SourceGraphic" result="shape"/>
    </filter>
    <filter id="filter1_d_4_1" x="58" y="52" width="92" height="64" filterUnits="userSpaceOnUse" color-interpolation-filters="sRGB">
      <feOffset dy="4"/>
      <feGaussianBlur stdDeviation="4"/>
      <feColorMatrix type="matrix" values="0 0 0 0 0.3 0 0 0 0 0.47 0 0 0 0 0.19 0 0 0 0.25 0"/>
      <feBlend mode="normal" in2="SourceGraphic" result="shape"/>
    </filter>
    <filter id="filter2_d_4_1" x="116" y="38" width="100" height="64" filterUnits="userSpaceOnUse" color-interpolation-filters="sRGB">
      <feOffset dy="4"/>
      <feGaussianBlur stdDeviation="4"/>
      <feColorMatrix type="matrix" values="0 0 0 0 0.6 0 0 0 0 0.17 0 0 0 0 0.36 0 0 0 0.25 0"/>
      <feBlend mode="normal" in2="SourceGraphic" result="shape"/>
    </filter>
    <filter id="filter3_d_4_1" x="196" y="52" width="94" height="64" filterUnits="userSpaceOnUse" color-interpolation-filters="sRGB">
      <feOffset dy="4"/>
      <feGaussianBlur stdDeviation="4"/>
      <feColorMatrix type="matrix" values="0 0 0 0 0.27 0 0 0 0 0.31 0 0 0 0 0.6 0 0 0 0.25 0"/>
      <feBlend mode="normal" in2="SourceGraphic" result="shape"/>
    </filter>
    <radialGradient id="paint0_radial_4_1" cx="0" cy="0" r="1" gradientUnits="userSpaceOnUse" gradientTransform="translate(160 120) rotate(90) scale(120 160)">
      <stop offset="0" stop-color="#F1F8E9"/>
      <stop offset="1" stop-color="#E1F5FE"/>
    </radialGradient>
  </defs>
</svg>
