<svg width="240" height="200" viewBox="0 0 240 200" fill="none" xmlns="http://www.w3.org/2000/svg">
  <defs>
    <linearGradient id="trailBackground" x1="0" y1="0" x2="240" y2="200" gradientUnits="userSpaceOnUse">
      <stop offset="0" stop-color="#e0f7fa" />
      <stop offset="0.5" stop-color="#f3e5f5" />
      <stop offset="1" stop-color="#ffe0f7" />
    </linearGradient>
    <linearGradient id="laneGlow" x1="0" y1="0" x2="0" y2="200" gradientUnits="userSpaceOnUse">
      <stop offset="0" stop-color="rgba(38,198,218,0.5)" />
      <stop offset="1" stop-color="rgba(124,77,255,0.2)" />
    </linearGradient>
    <linearGradient id="segmentCorrect" x1="0" y1="0" x2="1" y2="1">
      <stop offset="0" stop-color="#ffd54f" />
      <stop offset="1" stop-color="#ffb300" />
    </linearGradient>
    <linearGradient id="segmentAlt" x1="0" y1="0" x2="1" y2="1">
      <stop offset="0" stop-color="#ce93d8" />
      <stop offset="1" stop-color="#7e57c2" />
    </linearGradient>
  </defs>
  <rect width="240" height="200" rx="28" fill="url(#trailBackground)" />
  <g transform="translate(36 32)">
    <rect x="0" y="0" width="168" height="136" rx="22" fill="rgba(10,27,49,0.85)" />
    <g stroke="url(#laneGlow)" stroke-width="3">
      <path d="M28 12V124" stroke-linecap="round" />
      <path d="M84 12V124" stroke-linecap="round" />
      <path d="M140 12V124" stroke-linecap="round" />
    </g>
    <rect x="60" y="88" width="48" height="24" rx="12" fill="url(#segmentCorrect)" />
    <text x="84" y="104" text-anchor="middle" font-family="'Poppins', 'Arial', sans-serif" font-size="16" font-weight="700" fill="#4e342e">TH</text>
    <rect x="6" y="48" width="48" height="24" rx="12" fill="url(#segmentAlt)" opacity="0.7" />
    <text x="30" y="64" text-anchor="middle" font-family="'Poppins', 'Arial', sans-serif" font-size="16" font-weight="600" fill="#311b92">RA</text>
    <rect x="114" y="24" width="48" height="24" rx="12" fill="url(#segmentAlt)" opacity="0.7" />
    <text x="138" y="40" text-anchor="middle" font-family="'Poppins', 'Arial', sans-serif" font-size="16" font-weight="600" fill="#4527a0">SP</text>
  </g>
  <g transform="translate(162 40)">
    <rect width="36" height="36" rx="12" fill="rgba(255,255,255,0.7)" />
    <text x="18" y="23" text-anchor="middle" font-family="'Poppins', 'Arial', sans-serif" font-size="16" font-weight="700" fill="#26c6da">GO</text>
  </g>
  <g transform="translate(80 150)">
    <circle cx="40" cy="10" r="18" fill="#29b6f6" />
    <circle cx="92" cy="10" r="14" fill="#ab47bc" opacity="0.6" />
  </g>
</svg>
