<svg width="320" height="240" viewBox="0 0 320 240" fill="none" xmlns="http://www.w3.org/2000/svg">
  <rect x="16" y="24" width="288" height="192" rx="36" fill="url(#paint0_linear_5_1)"/>
  <g filter="url(#filter0_d_5_1)">
    <path d="M160 62L192 130H128L160 62Z" fill="#90CAF9"/>
    <path d="M160 62L168 98H152L160 62Z" fill="#E3F2FD"/>
    <rect x="146" y="128" width="28" height="44" rx="12" fill="#1E3A8A"/>
    <path d="M160 172C154 182 152 192 152 200H168C168 192 166 182 160 172Z" fill="#F97316"/>
  </g>
  <g filter="url(#filter1_d_5_1)">
    <circle cx="100" cy="164" r="18" fill="#FDE68A"/>
    <text x="100" y="170" text-anchor="middle" font-family="'Baloo 2', 'Comic Sans MS', sans-serif" font-size="16" fill="#C2410C">A</text>
  </g>
  <g filter="url(#filter2_d_5_1)">
    <circle cx="220" cy="140" r="18" fill="#FDE68A"/>
    <text x="220" y="146" text-anchor="middle" font-family="'Baloo 2', 'Comic Sans MS', sans-serif" font-size="16" fill="#C2410C">Z</text>
  </g>
  <path d="M70 190C96 176 122 176 150 184" stroke="#93C5FD" stroke-width="6" stroke-linecap="round" stroke-dasharray="16 12"/>
  <path d="M182 188C206 178 228 178 252 190" stroke="#60A5FA" stroke-width="6" stroke-linecap="round" stroke-dasharray="16 12"/>
  <defs>
    <filter id="filter0_d_5_1" x="112" y="54" width="96" height="162" filterUnits="userSpaceOnUse" color-interpolation-filters="sRGB">
      <feOffset dy="6"/>
      <feGaussianBlur stdDeviation="6"/>
      <feColorMatrix type="matrix" values="0 0 0 0 0.14 0 0 0 0 0.29 0 0 0 0 0.55 0 0 0 0.25 0"/>
      <feBlend mode="normal" in2="SourceGraphic" result="shape"/>
    </filter>
    <filter id="filter1_d_5_1" x="86" y="150" width="28" height="36" filterUnits="userSpaceOnUse" color-interpolation-filters="sRGB">
      <feOffset dy="4"/>
      <feGaussianBlur stdDeviation="4"/>
      <feColorMatrix type="matrix" values="0 0 0 0 0.99 0 0 0 0 0.76 0 0 0 0 0.28 0 0 0 0.35 0"/>
      <feBlend mode="normal" in2="SourceGraphic" result="shape"/>
    </filter>
    <filter id="filter2_d_5_1" x="206" y="126" width="28" height="36" filterUnits="userSpaceOnUse" color-interpolation-filters="sRGB">
      <feOffset dy="4"/>
      <feGaussianBlur stdDeviation="4"/>
      <feColorMatrix type="matrix" values="0 0 0 0 0.99 0 0 0 0 0.76 0 0 0 0 0.28 0 0 0 0.35 0"/>
      <feBlend mode="normal" in2="SourceGraphic" result="shape"/>
    </filter>
    <linearGradient id="paint0_linear_5_1" x1="160" y1="24" x2="160" y2="216" gradientUnits="userSpaceOnUse">
      <stop offset="0" stop-color="#E0F2FE"/>
      <stop offset="1" stop-color="#DBEAFE"/>
    </linearGradient>
  </defs>
</svg>
