<svg width="180" height="160" viewBox="0 0 180 160" fill="none" xmlns="http://www.w3.org/2000/svg">
  <defs>
    <linearGradient id="cover" x1="0" y1="0" x2="1" y2="1">
      <stop offset="0" stop-color="#BA68C8"/>
      <stop offset="1" stop-color="#9575CD"/>
    </linearGradient>
    <linearGradient id="pages" x1="40" y1="30" x2="140" y2="130">
      <stop offset="0" stop-color="#FFF8E1"/>
      <stop offset="1" stop-color="#F3E5F5"/>
    </linearGradient>
  </defs>
  <path d="M28 24H92L148 40V132L92 116H28V24Z" fill="url(#cover)" stroke="#7E57C2" stroke-width="6" stroke-linejoin="round"/>
  <path d="M92 40L148 40V132H92V40Z" fill="url(#pages)"/>
  <path d="M48 54H84" stroke="#F3E5F5" stroke-width="8" stroke-linecap="round"/>
  <path d="M48 82H84" stroke="#F3E5F5" stroke-width="8" stroke-linecap="round"/>
  <path d="M110 66L126 88L150 54" stroke="#8C9EFF" stroke-width="10" stroke-linecap="round" stroke-linejoin="round"/>
  <circle cx="60" cy="114" r="12" fill="#FFF176"/>
  <path d="M60 100L66 112L80 112L68 120L72 134L60 126L48 134L52 120L40 112H54L60 100Z" fill="#FFCA28"/>
</svg>
